# xmcd
#
# Track frame offsets:
#	150
#	14451
#	30347
#	47515
#	63517
#	80118
#	96109
#	111407
#	128564
#	150303
#	170895
#
# Disc length: 2523 seconds
# Revision: 0
# Processed by: cddbd v1.5.2PL0 Copyright (c) Steve Scherf et al.
# Submitted via: dBpowerAMP V12.0
#
DISCID=8709d90b
DTITLE=Honeycutters, The - When Bitter Met Sweet
DYEAR=2012
DGENRE=Alt Country
TTITLE0=Penny
TTITLE1=Somewhere Between
TTITLE2=90 Miles (The Tennessee Song)
TTITLE3=Getting Good At Waiting
TTITLE4=When Bitter Met Sweet
TTITLE5=Mother's Favorite Son
TTITLE6=Josephine
TTITLE7=All I Got
TTITLE8=For Eleanora
TTITLE9=Fancy Car
TTITLE10=Not Over Yet
EXTD=
EXTT0=
EXTT1=
EXTT2=
EXTT3=
EXTT4=
EXTT5=
EXTT6=
EXTT7=
EXTT8=
EXTT9=
EXTT10=
PLAYORDER=
